<mxfile host="Electron" agent="Mozilla/5.0 (Macintosh; Intel Mac OS X 10_15_7) AppleWebKit/537.36 (KHTML, like Gecko) draw.io/24.7.5 Chrome/126.0.6478.183 Electron/31.3.0 Safari/537.36" version="24.7.5" pages="2">
  <diagram name="第 1 页" id="FOlYxHShmwy1e1oTtc97">
    <mxGraphModel dx="675" dy="481" grid="1" gridSize="10" guides="1" tooltips="1" connect="1" arrows="1" fold="1" page="1" pageScale="1" pageWidth="827" pageHeight="1169" math="0" shadow="0">
      <root>
        <mxCell id="0" />
        <mxCell id="1" parent="0" />
        <mxCell id="Q_ZhAPwViul3IWRuw0_R-4" style="edgeStyle=orthogonalEdgeStyle;rounded=0;orthogonalLoop=1;jettySize=auto;html=1;exitX=1;exitY=0.5;exitDx=0;exitDy=0;entryX=0;entryY=0.5;entryDx=0;entryDy=0;startArrow=classic;startFill=1;" edge="1" parent="1" source="Q_ZhAPwViul3IWRuw0_R-2" target="Q_ZhAPwViul3IWRuw0_R-3">
          <mxGeometry relative="1" as="geometry" />
        </mxCell>
        <mxCell id="Q_ZhAPwViul3IWRuw0_R-2" value="使用者&lt;br&gt;&lt;br&gt;（錢包）" style="rounded=1;whiteSpace=wrap;html=1;fillColor=#f5f5f5;fontColor=#333333;strokeColor=#666666;" vertex="1" parent="1">
          <mxGeometry x="40" y="260" width="160" height="60" as="geometry" />
        </mxCell>
        <mxCell id="Q_ZhAPwViul3IWRuw0_R-3" value="dApp / 參加抽獎、查詢餘額&lt;br&gt;&lt;br&gt;（React 前端）" style="rounded=1;whiteSpace=wrap;html=1;fillColor=#f5f5f5;fontColor=#333333;strokeColor=#666666;" vertex="1" parent="1">
          <mxGeometry x="320" y="260" width="160" height="60" as="geometry" />
        </mxCell>
        <mxCell id="Q_ZhAPwViul3IWRuw0_R-5" value="" style="rounded=1;whiteSpace=wrap;html=1;fillColor=#dae8fc;strokeColor=#6c8ebf;" vertex="1" parent="1">
          <mxGeometry x="280" y="380" width="200" height="120" as="geometry" />
        </mxCell>
        <mxCell id="Q_ZhAPwViul3IWRuw0_R-8" style="edgeStyle=orthogonalEdgeStyle;rounded=0;orthogonalLoop=1;jettySize=auto;html=1;exitX=1;exitY=0.5;exitDx=0;exitDy=0;entryX=0;entryY=0.5;entryDx=0;entryDy=0;startArrow=classic;startFill=1;" edge="1" parent="1" source="Q_ZhAPwViul3IWRuw0_R-7" target="Q_ZhAPwViul3IWRuw0_R-12">
          <mxGeometry relative="1" as="geometry" />
        </mxCell>
        <mxCell id="Q_ZhAPwViul3IWRuw0_R-7" value="守護進程 / 觸發抽獎&lt;br&gt;&lt;br style=&quot;font-size: 11px;&quot;&gt;（go 後端）" style="rounded=1;whiteSpace=wrap;html=1;fontSize=11;fillColor=#f5f5f5;fontColor=#333333;strokeColor=#666666;" vertex="1" parent="1">
          <mxGeometry x="40" y="420" width="160" height="60" as="geometry" />
        </mxCell>
        <mxCell id="Q_ZhAPwViul3IWRuw0_R-9" value="觸發/監控" style="text;html=1;align=center;verticalAlign=middle;whiteSpace=wrap;rounded=0;" vertex="1" parent="1">
          <mxGeometry x="210" y="430" width="60" height="20" as="geometry" />
        </mxCell>
        <mxCell id="Q_ZhAPwViul3IWRuw0_R-10" value="交易/查詢" style="text;html=1;align=center;verticalAlign=middle;whiteSpace=wrap;rounded=0;fillColor=default;" vertex="1" parent="1">
          <mxGeometry x="330" y="340" width="60" height="20" as="geometry" />
        </mxCell>
        <mxCell id="Q_ZhAPwViul3IWRuw0_R-11" value="TON 區塊鍊" style="text;html=1;align=center;verticalAlign=middle;whiteSpace=wrap;rounded=0;" vertex="1" parent="1">
          <mxGeometry x="345" y="380" width="70" height="30" as="geometry" />
        </mxCell>
        <mxCell id="Q_ZhAPwViul3IWRuw0_R-14" style="edgeStyle=orthogonalEdgeStyle;rounded=0;orthogonalLoop=1;jettySize=auto;html=1;exitX=1;exitY=0.5;exitDx=0;exitDy=0;entryX=0;entryY=0.5;entryDx=0;entryDy=0;startArrow=classic;startFill=1;" edge="1" parent="1" source="Q_ZhAPwViul3IWRuw0_R-12" target="Q_ZhAPwViul3IWRuw0_R-13">
          <mxGeometry relative="1" as="geometry" />
        </mxCell>
        <mxCell id="Q_ZhAPwViul3IWRuw0_R-12" value="抽獎&lt;br&gt;合約" style="ellipse;whiteSpace=wrap;html=1;aspect=fixed;fillColor=#f5f5f5;fontColor=#333333;strokeColor=#666666;" vertex="1" parent="1">
          <mxGeometry x="295" y="420" width="60" height="60" as="geometry" />
        </mxCell>
        <mxCell id="Q_ZhAPwViul3IWRuw0_R-13" value="NFT&lt;br&gt;合約" style="ellipse;whiteSpace=wrap;html=1;aspect=fixed;fillColor=#f5f5f5;fontColor=#333333;strokeColor=#666666;" vertex="1" parent="1">
          <mxGeometry x="405" y="420" width="60" height="60" as="geometry" />
        </mxCell>
        <mxCell id="Q_ZhAPwViul3IWRuw0_R-16" value="TonConnect" style="text;html=1;align=center;verticalAlign=middle;whiteSpace=wrap;rounded=0;" vertex="1" parent="1">
          <mxGeometry x="230" y="270" width="60" height="20" as="geometry" />
        </mxCell>
        <mxCell id="Q_ZhAPwViul3IWRuw0_R-17" value="發送" style="text;html=1;align=center;verticalAlign=middle;whiteSpace=wrap;rounded=0;" vertex="1" parent="1">
          <mxGeometry x="365" y="425" width="30" height="25" as="geometry" />
        </mxCell>
        <mxCell id="Q_ZhAPwViul3IWRuw0_R-6" style="edgeStyle=orthogonalEdgeStyle;rounded=0;orthogonalLoop=1;jettySize=auto;html=1;exitX=0.5;exitY=1;exitDx=0;exitDy=0;entryX=0.5;entryY=0;entryDx=0;entryDy=0;startArrow=classic;startFill=1;" edge="1" parent="1" source="Q_ZhAPwViul3IWRuw0_R-3" target="Q_ZhAPwViul3IWRuw0_R-12">
          <mxGeometry relative="1" as="geometry">
            <Array as="points">
              <mxPoint x="400" y="360" />
              <mxPoint x="325" y="360" />
            </Array>
          </mxGeometry>
        </mxCell>
      </root>
    </mxGraphModel>
  </diagram>
  <diagram id="_77yd7WVJr2jkpO1pIeX" name="第 2 页">
    <mxGraphModel dx="651" dy="527" grid="1" gridSize="10" guides="1" tooltips="1" connect="1" arrows="1" fold="1" page="1" pageScale="1" pageWidth="827" pageHeight="1169" math="0" shadow="0">
      <root>
        <mxCell id="0" />
        <mxCell id="1" parent="0" />
        <mxCell id="c3mxjo0x1fhCeG2g-nTu-43" value="" style="rounded=0;whiteSpace=wrap;html=1;fillColor=#dae8fc;strokeColor=#6c8ebf;" vertex="1" parent="1">
          <mxGeometry x="390" y="280" width="150" height="200" as="geometry" />
        </mxCell>
        <mxCell id="c3mxjo0x1fhCeG2g-nTu-2" value="手動設定 GCP" style="rounded=1;whiteSpace=wrap;html=1;fontSize=12;fillColor=#f5f5f5;fontColor=#333333;strokeColor=#666666;" vertex="1" parent="1">
          <mxGeometry x="250" y="230" width="100" height="40" as="geometry" />
        </mxCell>
        <mxCell id="c3mxjo0x1fhCeG2g-nTu-15" style="edgeStyle=orthogonalEdgeStyle;rounded=0;orthogonalLoop=1;jettySize=auto;html=1;exitX=0.5;exitY=1;exitDx=0;exitDy=0;entryX=0.5;entryY=0;entryDx=0;entryDy=0;" edge="1" parent="1" source="c3mxjo0x1fhCeG2g-nTu-13" target="c3mxjo0x1fhCeG2g-nTu-2">
          <mxGeometry relative="1" as="geometry" />
        </mxCell>
        <mxCell id="c3mxjo0x1fhCeG2g-nTu-13" value="第一次部署" style="rounded=1;whiteSpace=wrap;html=1;fontSize=12;fillColor=#f5f5f5;strokeColor=#666666;fontColor=#333333;" vertex="1" parent="1">
          <mxGeometry x="250" y="160" width="100" height="40" as="geometry" />
        </mxCell>
        <mxCell id="c3mxjo0x1fhCeG2g-nTu-28" value="" style="rounded=0;whiteSpace=wrap;html=1;fillColor=#fff2cc;strokeColor=#d6b656;" vertex="1" parent="1">
          <mxGeometry x="220" y="280" width="150" height="200" as="geometry" />
        </mxCell>
        <mxCell id="c3mxjo0x1fhCeG2g-nTu-34" style="edgeStyle=orthogonalEdgeStyle;rounded=0;orthogonalLoop=1;jettySize=auto;html=1;exitX=0.5;exitY=1;exitDx=0;exitDy=0;entryX=0.5;entryY=0;entryDx=0;entryDy=0;" edge="1" parent="1" source="c3mxjo0x1fhCeG2g-nTu-29" target="c3mxjo0x1fhCeG2g-nTu-32">
          <mxGeometry relative="1" as="geometry" />
        </mxCell>
        <mxCell id="c3mxjo0x1fhCeG2g-nTu-29" value="&lt;div style=&quot;line-height: 18px; font-size: 12px;&quot;&gt;&lt;div style=&quot;line-height: 18px; font-size: 12px;&quot;&gt;&lt;font style=&quot;font-size: 12px;&quot; face=&quot;Menlo, Monaco, Courier New, monospace&quot;&gt;&lt;span style=&quot;font-size: 12px; white-space: pre;&quot;&gt;部署 Terraform&lt;/span&gt;&lt;/font&gt;&lt;br style=&quot;font-size: 12px;&quot;&gt;&lt;/div&gt;&lt;/div&gt;" style="rounded=1;whiteSpace=wrap;html=1;fontSize=12;fillColor=#f5f5f5;fontColor=default;strokeColor=#666666;labelBackgroundColor=none;" vertex="1" parent="1">
          <mxGeometry x="250" y="310" width="100" height="40" as="geometry" />
        </mxCell>
        <mxCell id="c3mxjo0x1fhCeG2g-nTu-31" value="&lt;div style=&quot;font-family: Menlo, Monaco, &amp;quot;Courier New&amp;quot;, monospace; line-height: 18px; white-space: pre; font-size: 12px;&quot;&gt;&lt;p style=&quot;margin: 0px; font-variant-numeric: normal; font-variant-east-asian: normal; font-variant-alternates: normal; font-kerning: auto; font-optical-sizing: auto; font-feature-settings: normal; font-variation-settings: normal; font-variant-position: normal; font-stretch: normal; font-size: 12px; line-height: normal; font-family: &amp;quot;PingFang TC&amp;quot;; text-align: start; white-space: normal;&quot; class=&quot;p1&quot;&gt;自動化部署準備&lt;/p&gt;&lt;/div&gt;" style="text;html=1;align=center;verticalAlign=middle;whiteSpace=wrap;rounded=0;labelBackgroundColor=none;fontSize=12;" vertex="1" parent="1">
          <mxGeometry x="230" y="300" width="10" height="160" as="geometry" />
        </mxCell>
        <mxCell id="c3mxjo0x1fhCeG2g-nTu-52" style="edgeStyle=orthogonalEdgeStyle;rounded=0;orthogonalLoop=1;jettySize=auto;html=1;exitX=1;exitY=0.5;exitDx=0;exitDy=0;entryX=0;entryY=0.5;entryDx=0;entryDy=0;" edge="1" parent="1" source="c3mxjo0x1fhCeG2g-nTu-32" target="c3mxjo0x1fhCeG2g-nTu-36">
          <mxGeometry relative="1" as="geometry" />
        </mxCell>
        <mxCell id="c3mxjo0x1fhCeG2g-nTu-32" value="部署 GKE" style="rounded=1;whiteSpace=wrap;html=1;fontSize=12;fillColor=#f5f5f5;fontColor=#333333;strokeColor=#666666;" vertex="1" parent="1">
          <mxGeometry x="250" y="400" width="100" height="40" as="geometry" />
        </mxCell>
        <mxCell id="c3mxjo0x1fhCeG2g-nTu-33" style="edgeStyle=orthogonalEdgeStyle;rounded=0;orthogonalLoop=1;jettySize=auto;html=1;exitX=0.5;exitY=1;exitDx=0;exitDy=0;entryX=0.5;entryY=0;entryDx=0;entryDy=0;" edge="1" parent="1" source="c3mxjo0x1fhCeG2g-nTu-2" target="c3mxjo0x1fhCeG2g-nTu-29">
          <mxGeometry relative="1" as="geometry" />
        </mxCell>
        <mxCell id="c3mxjo0x1fhCeG2g-nTu-40" style="edgeStyle=orthogonalEdgeStyle;rounded=0;orthogonalLoop=1;jettySize=auto;html=1;exitX=0.5;exitY=1;exitDx=0;exitDy=0;entryX=0.5;entryY=0;entryDx=0;entryDy=0;" edge="1" parent="1" source="c3mxjo0x1fhCeG2g-nTu-36" target="c3mxjo0x1fhCeG2g-nTu-37">
          <mxGeometry relative="1" as="geometry" />
        </mxCell>
        <mxCell id="c3mxjo0x1fhCeG2g-nTu-36" value="推送 GitHub" style="rounded=1;whiteSpace=wrap;html=1;fontSize=12;fillColor=#f5f5f5;fontColor=#333333;strokeColor=#666666;" vertex="1" parent="1">
          <mxGeometry x="405" y="300" width="100" height="40" as="geometry" />
        </mxCell>
        <mxCell id="c3mxjo0x1fhCeG2g-nTu-41" style="edgeStyle=orthogonalEdgeStyle;rounded=0;orthogonalLoop=1;jettySize=auto;html=1;exitX=0.5;exitY=1;exitDx=0;exitDy=0;entryX=0.5;entryY=0;entryDx=0;entryDy=0;" edge="1" parent="1" source="c3mxjo0x1fhCeG2g-nTu-37" target="c3mxjo0x1fhCeG2g-nTu-38">
          <mxGeometry relative="1" as="geometry" />
        </mxCell>
        <mxCell id="c3mxjo0x1fhCeG2g-nTu-37" value="CI：測試/構建" style="rounded=1;whiteSpace=wrap;html=1;fontSize=12;fillColor=#f5f5f5;fontColor=#333333;strokeColor=#666666;" vertex="1" parent="1">
          <mxGeometry x="405" y="360" width="100" height="40" as="geometry" />
        </mxCell>
        <mxCell id="c3mxjo0x1fhCeG2g-nTu-51" style="edgeStyle=orthogonalEdgeStyle;rounded=0;orthogonalLoop=1;jettySize=auto;html=1;exitX=0.5;exitY=1;exitDx=0;exitDy=0;entryX=0.5;entryY=0;entryDx=0;entryDy=0;" edge="1" parent="1" source="c3mxjo0x1fhCeG2g-nTu-38" target="c3mxjo0x1fhCeG2g-nTu-42">
          <mxGeometry relative="1" as="geometry" />
        </mxCell>
        <mxCell id="c3mxjo0x1fhCeG2g-nTu-38" value="CD：部署到GKE" style="rounded=1;whiteSpace=wrap;html=1;fontSize=12;fillColor=#f5f5f5;fontColor=#333333;strokeColor=#666666;" vertex="1" parent="1">
          <mxGeometry x="405" y="420" width="100" height="40" as="geometry" />
        </mxCell>
        <mxCell id="c3mxjo0x1fhCeG2g-nTu-42" value="服務發佈" style="rounded=1;whiteSpace=wrap;html=1;fontSize=12;fillColor=#f8cecc;strokeColor=#b85450;" vertex="1" parent="1">
          <mxGeometry x="405" y="500" width="100" height="40" as="geometry" />
        </mxCell>
        <mxCell id="c3mxjo0x1fhCeG2g-nTu-48" style="edgeStyle=orthogonalEdgeStyle;rounded=0;orthogonalLoop=1;jettySize=auto;html=1;exitX=0.5;exitY=1;exitDx=0;exitDy=0;entryX=0.5;entryY=0;entryDx=0;entryDy=0;" edge="1" parent="1" source="c3mxjo0x1fhCeG2g-nTu-47" target="c3mxjo0x1fhCeG2g-nTu-36">
          <mxGeometry relative="1" as="geometry" />
        </mxCell>
        <mxCell id="c3mxjo0x1fhCeG2g-nTu-47" value="後續開發維護" style="rounded=1;whiteSpace=wrap;html=1;fontSize=12;fillColor=#f5f5f5;fontColor=#333333;strokeColor=#666666;" vertex="1" parent="1">
          <mxGeometry x="405" y="160" width="100" height="40" as="geometry" />
        </mxCell>
        <mxCell id="c3mxjo0x1fhCeG2g-nTu-50" value="&lt;div style=&quot;font-family: Menlo, Monaco, &amp;quot;Courier New&amp;quot;, monospace; line-height: 18px; white-space: pre; font-size: 12px;&quot;&gt;&lt;p style=&quot;margin: 0px; font-variant-numeric: normal; font-variant-east-asian: normal; font-variant-alternates: normal; font-kerning: auto; font-optical-sizing: auto; font-feature-settings: normal; font-variation-settings: normal; font-variant-position: normal; font-stretch: normal; font-size: 12px; line-height: normal; font-family: &amp;quot;PingFang TC&amp;quot;; text-align: start; white-space: normal;&quot; class=&quot;p1&quot;&gt;自動化部署流程&lt;/p&gt;&lt;/div&gt;" style="text;html=1;align=center;verticalAlign=middle;whiteSpace=wrap;rounded=0;labelBackgroundColor=none;fontSize=12;" vertex="1" parent="1">
          <mxGeometry x="520" y="300" width="10" height="160" as="geometry" />
        </mxCell>
      </root>
    </mxGraphModel>
  </diagram>
</mxfile>
